<?xml version="1.0" encoding="UTF-8"?>
<svg xmlns="http://www.w3.org/2000/svg" xmlns:xlink="http://www.w3.org/1999/xlink" width="100px" height="100px" viewBox="0 0 100 99" version="1.1">
<defs>
<linearGradient id="linear0" gradientUnits="userSpaceOnUse" x1="0.12959" y1="0.12039" x2="0.79639" y2="0.78201" gradientTransform="matrix(73.9375,0,0,73.6875,0.0546875,0.0273438)">
<stop offset="0" style="stop-color:rgb(21.960784%,49.411765%,72.156863%);stop-opacity:1;"/>
<stop offset="1" style="stop-color:rgb(21.176471%,41.176471%,58.039216%);stop-opacity:1;"/>
</linearGradient>
<linearGradient id="linear1" gradientUnits="userSpaceOnUse" x1="0.19128" y1="0.20579" x2="0.90742" y2="0.88429" gradientTransform="matrix(73.933594,0,0,73.683594,25.871094,24.976562)">
<stop offset="0" style="stop-color:rgb(100%,87.843137%,32.156863%);stop-opacity:1;"/>
<stop offset="1" style="stop-color:rgb(100%,76.470588%,19.215686%);stop-opacity:1;"/>
</linearGradient>
</defs>
<g id="surface1">
<path style=" stroke:none;fill-rule:nonzero;fill:url(#linear0);" d="M 49.570312 0.0273438 C 24.25 0.0273438 25.832031 10.941406 25.832031 10.941406 L 25.859375 22.25 L 50.023438 22.25 L 50.023438 25.648438 L 16.261719 25.648438 C 16.261719 25.648438 0.0546875 23.820312 0.0546875 49.214844 C 0.0546875 74.613281 14.199219 73.714844 14.199219 73.714844 L 22.640625 73.714844 L 22.640625 61.929688 C 22.640625 61.929688 22.183594 47.871094 36.558594 47.871094 L 60.523438 47.871094 C 60.523438 47.871094 73.992188 48.085938 73.992188 34.933594 L 73.992188 13.1875 C 73.992188 13.1875 76.035156 0.0273438 49.570312 0.0273438 Z M 36.246094 7.632812 C 37.402344 7.632812 38.507812 8.085938 39.324219 8.898438 C 40.136719 9.707031 40.59375 10.808594 40.59375 11.953125 C 40.59375 13.101562 40.136719 14.199219 39.324219 15.011719 C 38.507812 15.820312 37.402344 16.277344 36.246094 16.273438 C 35.09375 16.277344 33.988281 15.820312 33.171875 15.011719 C 32.355469 14.199219 31.898438 13.101562 31.898438 11.953125 C 31.898438 10.808594 32.355469 9.707031 33.171875 8.898438 C 33.988281 8.085938 35.09375 7.632812 36.246094 7.632812 Z M 36.246094 7.632812 "/>
<path style=" stroke:none;fill-rule:nonzero;fill:url(#linear1);" d="M 50.289062 98.660156 C 75.613281 98.660156 74.03125 87.746094 74.03125 87.746094 L 74.003906 76.4375 L 49.839844 76.4375 L 49.839844 73.042969 L 83.601562 73.042969 C 83.601562 73.042969 99.804688 74.867188 99.804688 49.472656 C 99.804688 24.074219 85.664062 24.976562 85.664062 24.976562 L 77.222656 24.976562 L 77.222656 36.761719 C 77.222656 36.761719 77.675781 50.820312 63.304688 50.820312 L 39.335938 50.820312 C 39.335938 50.820312 25.871094 50.601562 25.871094 63.753906 L 25.871094 85.5 C 25.871094 85.5 23.828125 98.660156 50.289062 98.660156 Z M 63.617188 91.058594 C 62.460938 91.058594 61.355469 90.601562 60.539062 89.792969 C 59.726562 88.980469 59.265625 87.882812 59.269531 86.734375 C 59.265625 85.589844 59.726562 84.488281 60.539062 83.679688 C 61.355469 82.867188 62.460938 82.414062 63.617188 82.414062 C 64.769531 82.414062 65.875 82.867188 66.691406 83.679688 C 67.507812 84.488281 67.964844 85.589844 67.960938 86.734375 C 67.964844 87.882812 67.507812 88.980469 66.691406 89.792969 C 65.875 90.601562 64.769531 91.058594 63.617188 91.054688 Z M 63.617188 91.058594 "/>
</g>
</svg>
