<?xml version="1.0" encoding="UTF-8"?>
<svg xmlns="http://www.w3.org/2000/svg" xmlns:xlink="http://www.w3.org/1999/xlink" width="100px" height="100px" viewBox="0 0 100 75" version="1.1">
<defs>
<linearGradient id="linear0" gradientUnits="userSpaceOnUse" x1="0.37973" y1="0.16999" x2="0.91121" y2="0.76326" gradientTransform="matrix(100,0,0,65.394531,0,0.00390625)">
<stop offset="0" style="stop-color:rgb(78.823529%,79.607843%,80.784314%);stop-opacity:1;"/>
<stop offset="1" style="stop-color:rgb(48.235294%,47.843137%,50.588235%);stop-opacity:1;"/>
</linearGradient>
</defs>
<g id="surface1">
<path style=" stroke:none;fill-rule:nonzero;fill:url(#linear0);" d="M 58.332031 58.027344 C 37.5 58.027344 19.792969 47.648438 19.792969 35.214844 C 19.792969 22.78125 35.417969 12.4375 56.25 12.4375 C 82.5625 12.4375 94.753906 22.507812 94.753906 34.941406 C 94.753906 47.375 81.316406 58.027344 58.332031 58.027344 M 50 0.00390625 C 22.917969 0.00390625 0 14.511719 0 33.160156 C 0 50.777344 22.777344 65.398438 49.863281 65.398438 C 76.945312 65.398438 100 51.8125 100 33.160156 C 100 14.511719 77.082031 0.00390625 50 0.00390625 "/>
<path style=" stroke:none;fill-rule:nonzero;fill:rgb(12.941177%,39.607844%,71.372551%);fill-opacity:1;" d="M 41.386719 20.144531 L 41.386719 74.972656 L 58.042969 74.972656 L 58.042969 53.648438 C 62.207031 53.648438 64.6875 52.746094 67.414062 57.710938 C 71.578125 64.816406 76.78125 74.972656 76.78125 74.972656 L 96.5625 74.972656 C 96.5625 74.972656 84.070312 54.664062 83.027344 53.648438 C 81.109375 51.617188 78.863281 51.617188 75.742188 50.601562 C 81.988281 49.585938 87.8125 47.011719 89.835938 41.484375 C 91.605469 36.410156 91.398438 29.953125 87.601562 25.621094 C 84.316406 22.195312 80.945312 20.144531 72.617188 20.144531 Z M 58.042969 31.5625 L 68.972656 31.5625 C 71.566406 31.5625 73.660156 34.101562 73.660156 36.636719 C 73.660156 39.175781 71.578125 41.714844 68.972656 41.714844 L 58.042969 41.714844 Z M 58.042969 31.5625 "/>
</g>
</svg>
